#!OML:ASF F:\VICON\USERDATA\INSTALL\rory3\rory3.ASF
:FULLY-SPECIFIED
:DEGREES
753
root -0.618116 15.7795 3.83825 201.142 -22.1428 -197.521
lowerback -0.683768 -9.51978 -8.21658
upperback -11.3456 -14.0984 2.73368
thorax -9.25436 -6.54284 8.17121
lowerneck -13.9432 -0.324555 -5.4746
upperneck 33.9135 5.82331 -3.72013
head 13.9409 2.50408 0.676533
rclavicle 1.89839e-014 -5.56597e-014
rhumerus -75.6982 -28.5058 93.0563
rradius 14.0671
rwrist 111.782
rhand -7.41928 6.74468
rfingers 7.12502
rthumb 18.4675 -22.3987
lclavicle 1.89839e-014 -5.56597e-014
lhumerus -72.6677 -15.0173 -26.236
lradius 10.0407
lwrist -90.6505
lhand 9.56199 24.1329
lfingers 7.12502
lthumb 34.7108 50.756
rfemur -69.163 -16.1586 4.66749
rtibia 45.4063
rfoot -6.27343 -39.5131
rtoes 56.1571
lfemur 189.069 184.27 147.188
ltibia 22.2205
lfoot -3.87977 18.9214
ltoes -47.4271
754
root -0.582053 15.763 3.45771 199.506 -21.8658 -196.728
lowerback -1.46354 -9.60452 -8.15307
upperback -10.8767 -13.9986 3.16877
thorax -8.18109 -6.55357 8.33127
lowerneck -13.6192 -0.168646 -5.92853
upperneck 34.1612 6.36157 -3.8222
head 13.9819 2.71098 0.805637
rclavicle -1.28117e-013 -1.43125e-014
rhumerus -77.4459 -27.0655 94.2695
rradius 14.0072
rwrist 115.611
rhand -5.28106 7.17334
rfingers 7.12502
rthumb 20.5233 -21.7619
lclavicle -1.28117e-013 -1.43125e-014
lhumerus -74.845 -14.166 -22.3551
lradius 9.70715
lwrist -82.3997
lhand 9.02464 23.8371
lfingers 7.12502
lthumb 34.2007 50.5761
rfemur -67.5874 -16.6902 8.03026
rtibia 46.4523
rfoot -1.1741 -35.1381
rtoes 52.5028
lfemur 188.608 184.684 148.784
ltibia 26.795
lfoot -0.122361 17.0064
ltoes -42.8641
755
root -0.544064 15.7342 3.13388 198.285 -20.7046 -195.774
lowerback -2.25127 -9.33229 -7.98876
upperback -10.5117 -13.4819 3.50106
thorax -7.36289 -6.35853 8.38288
lowerneck -13.5928 -0.14058 -6.17246
upperneck 34.5745 6.623 -3.79762
head 14.1607 2.81683 0.9126
rclavicle 5.01931e-014 -3.33958e-014
rhumerus -77.9578 -24.5158 92.3917
rradius 13.399
rwrist 117.805
rhand -2.66282 6.49976
rfingers 7.12502
rthumb 23.0375 -22.1433
lclavicle 5.01931e-014 -3.33958e-014
lhumerus -76.7368 -12.7158 -18.7033
lradius 9.09445
lwrist -74.6997
lhand 8.18523 23.2546
lfingers 7.12502
lthumb 33.4031 50.1688
rfemur -66.4774 -15.9999 10.8492
rtibia 47.3058
rfoot -1.00843 -31.5981
rtoes 48.6782
lfemur 187.054 184.668 150.143
ltibia 31.5647
lfoot 5.38482 15.6888
ltoes -37.2965
756
root -0.48684 15.6971 2.82711 197.059 -19.2772 -194.57
lowerback -2.84673 -8.84912 -7.73156
upperback -10.1202 -12.7189 3.69658
thorax -6.73149 -6.03438 8.31247
lowerneck -13.8234 -0.253113 -6.02829
upperneck 35.1354 6.52179 -3.64727
head 14.4666 2.80934 0.953185
rclavicle -1.23246e-014 -6.67916e-014
rhumerus -77.4352 -20.707 87.0515
rradius 12.303
rwrist 117.487
rhand -0.448718 7.54703
rfingers 7.12502
rthumb 25.1605 -20.8148
lclavicle -1.23246e-014 -6.67916e-014
lhumerus -78.135 -11.6399 -15.569
lradius 8.77924
lwrist -67.2775
lhand 7.00556 21.7588
lfingers 7.12502
lthumb 32.281 48.908
rfemur -64.9718 -14.2047 13.2138
rtibia 48.1568
rfoot -4.89335 -29.4389
rtoes 47.5571
lfemur 185.008 183.983 151.945
ltibia 36.8163
lfoot 8.7474 11.714
ltoes -41.2702
757
root -0.459148 15.6889 2.4748 195.78 -18.6993 -192.885
lowerback -4.67159 -8.68773 -6.32744
upperback -9.31015 -12.2578 3.72458
thorax -5.14149 -5.98977 7.17551
lowerneck -13.7043 -0.278525 -5.52498
upperneck 35.274 6.205 -3.34331
head 14.4917 2.77288 0.936686
rclavicle -5.64548e-014 4.77083e-014
rhumerus -78.4036 -17.4285 82.1645
rradius 11.5538
rwrist 118.004
rhand 1.8253 8.62387
rfingers 7.12502
rthumb 27.3375 -19.4138
lclavicle -5.64548e-014 4.77083e-014
lhumerus -79.9705 -9.81344 -12.9551
lradius 10.6198
lwrist -61.0665
lhand 7.46064 20.3618
lfingers 7.12502
lthumb 32.714 47.4219
rfemur -63.2461 -12.7119 14.9298
rtibia 48.9756
rfoot -7.59882 -28.3974
rtoes 45.6626
lfemur 183.147 183.546 154.542
ltibia 42.0288
lfoot 11.2374 6.21409
ltoes -44.0008
758
root -0.378692 15.6216 2.20861 194.751 -16.9151 -191.896
lowerback -5.22114 -8.25141 -6.35894
upperback -8.85062 -11.5942 3.70727
thorax -4.44088 -5.6906 7.0648
lowerneck -13.0831 -0.226065 -5.0018
upperneck 35.209 5.98142 -3.09739
head 14.3118 2.79918 0.894852
rclavicle 9.06458e-014 -1.59028e-014
rhumerus -81.8477 -16.4186 83.6203
rradius 11.7317
rwrist 124.539
rhand 3.27294 10.2277
rfingers 7.12502
rthumb 28.7213 -17.5837
lclavicle 9.06458e-014 -1.59028e-014
lhumerus -80.6989 -6.51899 -15.894
lradius 10.9953
lwrist -61.8638
lhand 6.54723 18.6118
lfingers 7.12502
lthumb 31.8446 45.8488
rfemur -62.147 -8.93807 15.073
rtibia 49.9633
rfoot -10.1738 -28.8427
rtoes 43.9735
lfemur 180.523 182.393 156.266
ltibia 47.3557
lfoot 11.505 2.4931
ltoes -41.2853
759
root -0.332399 15.5774 1.92411 193.408 -16.039 -190.656
lowerback -5.8693 -8.07628 -5.54161
upperback -8.04798 -11.2314 3.60896
thorax -3.43013 -5.57988 6.35337
lowerneck -12.8031 -0.171102 -4.48294
upperneck 35.0629 5.64562 -2.67044
head 14.1626 2.76548 0.908508
rclavicle 7.36497e-014 -1.90833e-014
rhumerus -87.1504 -15.9591 88.9423
rradius 12.614
rwrist 134.034
rhand 3.58773 12.3719
rfingers 7.12502
rthumb 29.022 -15.3881
lclavicle 7.36497e-014 -1.90833e-014
lhumerus -82.2043 -4.11022 -13.0129
lradius 11.45
lwrist -57.7193
lhand 5.44127 17.8035
lfingers 7.12502
lthumb 30.7908 45.2447
rfemur -60.4361 -6.6862 15.9897
rtibia 51.0595
rfoot -12.8932 -28.6308
rtoes 42.9661
lfemur 178.261 181.825 158.425
ltibia 52.2591
lfoot 11.909 5.87331
ltoes -34.8965
760
root -0.285776 15.5197 1.66673 192.285 -14.9118 -189.995
lowerback -6.24488 -7.88785 -5.17592
upperback -7.243 -10.867 3.245
thorax -2.54576 -5.43099 5.66641
lowerneck -12.7806 -0.0873409 -3.7546
upperneck 34.9024 5.27614 -2.2459
head 14.07 2.72301 0.881226
rclavicle 1.08636e-013 3.33958e-014
rhumerus -92.0992 -14.6773 92.7764
rradius 13.4252
rwrist 141.401
rhand 3.58843 14.5718
rfingers 7.12502
rthumb 29.0227 -13.188
lclavicle 1.08636e-013 3.33958e-014
lhumerus -83.2814 -1.51721 -9.06058
lradius 11.7731
lwrist -53.2355
lhand 4.1487 17.2775
lfingers 7.12502
lthumb 29.5577 44.944
rfemur -59.2017 -4.49083 16.4281
rtibia 52.3896
rfoot -15.2488 -28.7122
rtoes 42.614
lfemur 175.566 181.207 159.856
ltibia 57.0118
lfoot 10.4154 8.39851
ltoes -28.2349
761
root -0.242678 15.4713 1.40462 191.138 -13.8913 -189.246
lowerback -6.56477 -7.77114 -4.56298
upperback -6.4635 -10.6239 2.88735
thorax -1.74382 -5.34066 4.868
lowerneck -12.8856 0.121606 -2.94877
upperneck 34.8157 5.14817 -1.93776
head 14.0484 2.77918 0.836034
rclavicle 1.0307e-013 -3.18055e-015
rhumerus -96.9263 -13.1251 96.3625
rradius 14.4619
rwrist 148.365
rhand 3.58002 17.0417
rfingers 7.12502
rthumb 29.0147 -10.7195
lclavicle 1.0307e-013 -3.18055e-015
lhumerus -83.9918 1.84869 -8.13799
lradius 11.8263
lwrist -52.677
lhand 2.76623 16.4725
lfingers 7.12502
lthumb 28.2372 44.3649
rfemur -58.1526 -2.66113 17.1842
rtibia 53.9304
rfoot -17.6906 -28.56
rtoes 44.1049
lfemur 172.733 180.463 161.419
ltibia 61.2583
lfoot 6.58267 10.528
ltoes -29.8796
762
root -0.184577 15.3935 1.18606 189.865 -12.2148 -188.506
lowerback -6.29884 -7.42319 -4.26177
upperback -5.55431 -10.0702 2.55103
thorax -1.10353 -5.06488 4.36691
lowerneck -13.3688 0.355256 -2.0161
upperneck 34.7692 5.08411 -1.81926
head 14.1434 2.83715 0.709764
rclavicle -4.08502e-014 9.54166e-015
rhumerus -99.4153 -11.7047 89.9488
rradius 13.7873
rwrist 145.159
rhand 4.68715 16.4671
rfingers 7.12502
rthumb 30.0715 -11.1072
lclavicle -4.08502e-014 9.54166e-015
lhumerus -84.3779 5.9139 -7.42449
lradius 11.6707
lwrist -52.9394
lhand 1.15735 16.701
lfingers 7.12502
lthumb 26.6984 44.8377
rfemur -57.5013 0.172716 17.7585
rtibia 55.703
rfoot -18.2405 -29.2036
rtoes 42.6239
lfemur 169.805 178.98 163.065
ltibia 64.9424
lfoot 3.64025 13.285
ltoes -25.8602
763
root -0.127431 15.3002 0.994002 188.748 -11.3298 -187.764
lowerback -5.73175 -7.29702 -3.86119
upperback -4.82325 -9.84967 2.2983
thorax -0.779235 -4.95007 3.93036
lowerneck -13.8451 0.539313 -1.15563
upperneck 34.8856 5.07346 -1.84069
head 14.3198 2.90598 0.555487
rclavicle 8.78628e-014 -7.95139e-015
rhumerus -102.009 -11.1387 83.2944
rradius 12.5267
rwrist 141.746
rhand 5.21376 14.4843
rfingers 7.12502
rthumb 30.5738 -12.9975
lclavicle 8.78628e-014 -7.95139e-015
lhumerus -84.5197 10.2041 -7.04117
lradius 11.3821
lwrist -53.785
lhand -0.451962 18.1113
lfingers 7.12502
lthumb 25.1574 46.4736
rfemur -56.9909 2.23259 18.4922
rtibia 57.4307
rfoot -21.0371 -29.187
rtoes 44.5333
lfemur 166.322 178.164 164.898
ltibia 68.2814
lfoot 1.44067 16.362
ltoes -17.1794
764
root -0.114348 15.2742 0.734034 187.85 -11.0993 -188.015
lowerback -5.99686 -7.31572 -3.60179
upperback -4.08592 -9.79945 1.60595
thorax -0.0319882 -4.93217 2.99547
lowerneck -14.226 0.590471 -0.36129
upperneck 35.1675 4.95674 -1.89494
head 14.5534 2.93931 0.387922
rclavicle 2.23136e-014 1.59028e-015
rhumerus -104.741 -11.1327 77.2829
rradius 11.374
rwrist 138.924
rhand 5.40944 14.4905
rfingers 7.12502
rthumb 30.7604 -12.9564
lclavicle 2.23136e-014 1.59028e-015
lhumerus -84.8506 15.0169 -9.37116
lradius 10.7622
lwrist -57.8174
lhand -2.41287 18.3641
lfingers 7.12502
lthumb 23.2773 46.9771
rfemur -55.8424 2.5538 18.475
rtibia 59.1279
rfoot -21.9967 -29.0679
rtoes 43.4625
lfemur 163.471 178.536 165.125
ltibia 70.3645
lfoot -4.23483 18.0163
ltoes -16.6184
765
root -0.0544395 15.2205 0.592745 187.015 -9.97529 -186.51
lowerback -5.03012 -6.88089 -2.38831
upperback -3.95915 -9.28305 1.69633
thorax -0.640623 -4.67608 2.60668
lowerneck -13.9868 0.560762 0.184004
upperneck 35.5969 4.94114 -1.99488
head 14.7149 3.0316 0.260711
rclavicle -7.79733e-014 -9.54166e-015
rhumerus -106.624 -12.2611 69.9112
rradius 10.0681
rwrist 134.947
rhand 6.05059 14.9979
rfingers 7.12502
rthumb 31.3715 -12.3321
lclavicle -7.79733e-014 -9.54166e-015
lhumerus -85.2331 19.4179 -10.6022
lradius 10.246
lwrist -61.112
lhand -4.42553 19.5869
lfingers 7.12502
lthumb 21.3453 48.4313
rfemur -55.4206 5.52867 20.0032
rtibia 60.272
rfoot -23.8673 -30.0203
rtoes 44.0813
lfemur 159.045 177.591 167.675
ltibia 72.506
lfoot -8.0876 18.651
ltoes -10.7056
766
root -0.0377907 15.1583 0.414237 186.205 -9.59416 -185.901
lowerback -4.67358 -6.66738 -1.53911
upperback -3.48956 -8.99378 1.51896
thorax -0.523232 -4.53417 2.00369
lowerneck -14.3295 0.51458 0.377846
upperneck 36.0159 4.90046 -1.97552
head 14.9963 3.05075 0.246648
rclavicle 1.02623e-013 -1.59028e-015
rhumerus -102.376 -19.8093 42.0453
rradius 7.33647
rwrist 110.638
rhand 9.32037 9.85572
rfingers 7.12502
rthumb 34.4814 -16.8199
lclavicle 1.02623e-013 -1.59028e-015
lhumerus -83.0332 23.7458 -4.95926
lradius 9.82365
lwrist -58.6134
lhand -5.85641 21.3491
lfingers 7.12502
lthumb 19.9704 50.3429
rfemur -54.5822 6.32069 20.9666
rtibia 61.4293
rfoot -25.8148 -29.4471
rtoes 44.928
lfemur 155.071 177.846 168.82
ltibia 73.6785
lfoot -10.353 19.9247
ltoes -4.42641
